# xmcd
#
# Track frame offsets: 
#        150
#        12610
#        23657
#        39030
#        51310
#        61862
#        76167
#        92175
#        107190
#        118820
#        131890
#        137930
#        148945
#        162880
#        174232
#        187815
#        200322
#        215015
#        226392
#        240865
#
# Disc length: 3409 seconds
#
# Revision: 0
# Processed by: cddbd v1.5.2PL0 Copyright (c) Steve Scherf et al.
# Submitted via: ExactAudioCopy v0.95b3
#
DISCID=120d4f14
DTITLE=Various Artist - The memory lingers on
DYEAR=1996
DGENRE=Blues
TTITLE0=Dean Martin - Everybody Loves Somebody
TTITLE1=Doris Day - I'm in the mood for love
TTITLE2=Frank Sinatra - Nancy
TTITLE3=Nat King Cole - Mona Lisa
TTITLE4=Chris Connor - I hear music
TTITLE5=Perry Como - Till the end of time
TTITLE6=Sarah Vaughan - Stormy weather
TTITLE7=Billy Eckstine - I apologise
TTITLE8=Lena Horne - Old devil moon
TTITLE9=Bing Crosby - I can't begin to tell you
TTITLE10=Carmen McRae - Thou swell
TTITLE11=Fred Astaire - Let's face the music and danc
TTITLE12=Ella Fitzegerald - The one I love
TTITLE13=Louis Armstrong - Love walked in
TTITLE14=Judy Garland - How about you?
TTITLE15=Dick Haymes - You'll never know
TTITLE16=Eydie Gorme - Since I fell for you
TTITLE17=Dinah Washington - Oou love is here to stay
TTITLE18=Mel Torme - Prelude to a kiss
TTITLE19=Billie Holiday - Georgia on my mind
EXTD=
EXTT0=
EXTT1=
EXTT2=
EXTT3=
EXTT4=
EXTT5=
EXTT6=
EXTT7=
EXTT8=
EXTT9=
EXTT10=
EXTT11=
EXTT12=
EXTT13=
EXTT14=
EXTT15=
EXTT16=
EXTT17=
EXTT18=
EXTT19=
PLAYORDER=
